Coordinates
version=1
nRows=26
nColumns=18
inDegrees=yes

Units are S.I. units (second, meters, Newtons, ...)
Angles are in degrees.

endheader
time	ground_thorax_rot_x	ground_thorax_rot_y	ground_thorax_rot_z	ground_thorax_tx	ground_thorax_ty	ground_thorax_tz	clav_prot	clav_elev	scapula_abduction	scapula_elevation	scapula_upward_rot	scapula_winging	plane_elv	shoulder_elv	axial_rot	elbow_flexion	pro_sup
      0.00000000	      1.58367806	     -6.17340766	     -9.70022728	     -0.00423131	      0.00403036	     -0.00078352	    -18.49647963	     -3.54407756	     -5.04104870	     -3.45886175	     13.90132769	      4.51648880	    -21.89800816	     15.62830338	     45.35378347	      0.00000000	     34.32000000
      0.01000000	      1.47132352	     -6.16660431	     -9.74375825	     -0.00423131	      0.00403036	     -0.00078352	    -18.48186835	     -3.79795563	     -5.08319339	     -3.59408742	     13.67994413	      4.64413137	    -21.45076289	     15.98117076	     43.10871193	      0.00000000	     34.32000000
      0.02000000	      1.57546671	     -6.09326340	     -9.71155611	     -0.00423131	      0.00403036	     -0.00078352	    -18.60460654	     -3.70052329	     -5.24197327	     -3.56191504	     13.81695301	      4.60062723	    -21.68320357	     15.90308656	     43.65652326	      0.00000000	     34.32000000
      0.03000000	      1.59535343	     -6.02821987	     -9.73732960	     -0.00423131	      0.00403036	     -0.00078352	    -18.67264872	     -3.73655716	     -5.43240548	     -3.55758310	     13.68134073	      4.65683519	    -20.90284824	     16.25798935	     40.79528159	      0.00000000	     34.32000000
      0.04000000	      1.54603707	     -5.98942883	     -9.74761840	     -0.00423131	      0.00403036	     -0.00078352	    -18.64057738	     -3.70940905	     -5.38617357	     -3.53361221	     13.67554600	      4.64553164	    -21.18082385	     16.19426191	     41.02946416	      0.00000000	     34.32000000
      0.05000000	      1.47315005	     -6.05614404	     -9.70958171	     -0.00423131	      0.00403036	     -0.00078352	    -18.56346821	     -3.79565250	     -5.22928721	     -3.59558735	     13.67608816	      4.65792644	    -21.49605591	     16.38925387	     40.10185976	      0.00000000	     34.32000000
      0.06000000	      1.36678011	     -6.15334999	     -9.74661671	     -0.00423131	      0.00403036	     -0.00078352	    -18.45787456	     -3.93055025	     -5.05867066	     -3.67188453	     13.59483166	      4.70053685	    -21.16138400	     16.52758695	     38.55282456	      0.00000000	     34.32000000
      0.07000000	      1.35153690	     -6.17652270	     -9.76772485	     -0.00423131	      0.00403036	     -0.00078352	    -18.45605423	     -3.91097378	     -5.05392756	     -3.65970205	     13.60581999	      4.69201446	    -21.14958091	     16.49998144	     38.56746507	      0.00000000	     34.32000000
      0.08000000	      1.43669409	     -6.34043173	     -9.69683995	     -0.00423131	      0.00403036	     -0.00078352	    -18.30075052	     -3.83206586	     -4.84132969	     -3.57297751	     13.53580249	      4.66109413	    -20.65248005	     16.69735006	     37.23373262	      0.00000000	     34.32000000
      0.09000000	      1.43652150	     -6.35929238	     -9.73874296	     -0.00423131	      0.00403036	     -0.00078352	    -18.30507483	     -3.81879003	     -4.84801555	     -3.56483694	     13.54276968	      4.65562858	    -20.65487222	     16.66620245	     37.24884818	      0.00000000	     34.32000000
      0.10000000	      1.59846509	     -6.35743232	     -9.73763888	     -0.00423131	      0.00403036	     -0.00078352	    -18.39602717	     -3.60120356	     -4.77148589	     -3.53223284	     14.03522792	      4.48130148	    -21.89834406	     16.06538056	     40.43262450	      0.00000000	     34.32000000
      0.11000000	      1.47884547	     -6.35006941	     -9.73264379	     -0.00423131	      0.00403036	     -0.00078352	    -18.33572032	     -3.77613610	     -4.83803431	     -3.56705302	     13.66941517	      4.61589940	    -20.94922153	     16.60122750	     36.81189048	      0.00000000	     34.32000000
      0.12000000	      1.44302488	     -6.26683181	     -9.76144850	     -0.00423131	      0.00403036	     -0.00078352	    -18.39317018	     -3.83287852	     -4.91225595	     -3.61917335	     13.69144813	      4.63652837	    -21.07028066	     16.56642952	     36.91061970	      0.00000000	     34.32000000
      0.13000000	      1.39442059	     -6.23189048	     -9.74250451	     -0.00423131	      0.00403036	     -0.00078352	    -18.37102092	     -3.86138259	     -4.88557218	     -3.63127656	     13.65887190	      4.64948988	    -21.15606068	     16.57365820	     36.96815936	      0.00000000	     34.32000000
      0.14000000	      1.36396551	     -6.25446640	     -9.68091702	     -0.00423131	      0.00403036	     -0.00078352	    -18.30156555	     -3.80251981	     -4.75660922	     -3.59219247	     13.69511884	      4.61111669	    -21.55486491	     16.48696790	     37.57356324	      0.00000000	     34.32000000
      0.15000000	      1.55473865	     -6.26555762	     -9.74930279	     -0.00423131	      0.00403036	     -0.00078352	    -18.37066879	     -3.58090577	     -4.74142009	     -3.51123758	     14.01914968	      4.47538434	    -21.52331460	     16.24706963	     38.16520424	      0.00000000	     34.32000000
      0.16000000	      1.47674081	     -6.32156805	     -9.80224804	     -0.00423131	      0.00403036	     -0.00078352	    -18.34084569	     -3.68418604	     -4.72907323	     -3.55957449	     13.90819290	      4.52844278	    -21.15931669	     16.33422665	     37.80886508	      0.00000000	     34.32000000
      0.17000000	      1.39846627	     -6.43276127	     -9.64701793	     -0.00423131	      0.00403036	     -0.00078352	    -18.18645000	     -3.75314685	     -4.56866736	     -3.54749372	     13.69117538	      4.57782735	    -21.40452554	     16.51556244	     37.83896074	      0.00000000	     34.32000000
      0.18000000	      1.48262744	     -6.54793311	     -9.65843906	     -0.00423131	      0.00403036	     -0.00078352	    -18.07702367	     -3.71686819	     -4.41726376	     -3.49987251	     13.63659270	      4.56215194	    -20.62054634	     16.77626073	     36.24855209	      0.00000000	     34.32000000
      0.19000000	      1.49642680	     -6.54068231	     -9.74037748	     -0.00423131	      0.00403036	     -0.00078352	    -18.09532801	     -3.71691073	     -4.42524443	     -3.51151991	     13.67753144	      4.55477752	    -20.63451977	     16.70140185	     36.28414299	      0.00000000	     34.32000000
      0.20000000	      1.47175589	     -6.31241548	     -9.81281167	     -0.00423131	      0.00403036	     -0.00078352	    -18.35618578	     -3.80386497	     -4.76371371	     -3.63550573	     13.84585550	      4.58195079	    -20.89710703	     16.77005407	     33.58477722	      0.00000000	     34.32000000
      0.21000000	      1.44851197	     -6.36273516	     -9.82568985	     -0.00423131	      0.00403036	     -0.00078352	    -18.35648923	     -3.78965336	     -4.77173761	     -3.62280233	     13.83886308	      4.57977480	    -20.87765337	     16.73681428	     33.61166291	      0.00000000	     34.32000000
      0.22000000	      1.37506398	     -6.32106670	     -9.81744323	     -0.00423131	      0.00403036	     -0.00078352	    -18.42969514	     -3.79978872	     -4.88519485	     -3.64009152	     13.86053811	      4.58938280	    -20.97980620	     16.52079457	     34.35105204	      0.00000000	     34.32000000
      0.23000000	      1.37097838	     -6.35861274	     -9.82867394	     -0.00423131	      0.00403036	     -0.00078352	    -18.42747021	     -3.78748034	     -4.88552464	     -3.62989722	     13.85824765	      4.58616302	    -20.95513624	     16.50720804	     34.38122503	      0.00000000	     34.32000000
      0.24000000	      1.59577289	     -6.40732246	     -9.71336288	     -0.00423131	      0.00403036	     -0.00078352	    -18.46481911	     -3.41355563	     -4.82925413	     -3.44083706	     14.22021988	      4.39139001	    -21.83263526	     15.47719724	     44.36171253	      0.00000000	     34.32000000
      0.25000000	      1.51625675	     -6.43913967	     -9.75801904	     -0.00423131	      0.00403036	     -0.00078352	    -18.40135671	     -3.53241917	     -4.73317467	     -3.50853778	     14.14455836	      4.43416980	    -22.09241503	     15.49040176	     44.98559470	      0.00000000	     34.32000000
